<svg xmlns="http://www.w3.org/2000/svg" xmlns:xlink="http://www.w3.org/1999/xlink" width="2000" zoomAndPan="magnify" viewBox="0 0 1500 749.999995" height="1000" preserveAspectRatio="xMidYMid meet" version="1.0"><defs><g/></defs><rect x="-150" width="1800" fill="rgb(100%, 100%, 100%)" y="-74.999999" height="899.999994" fill-opacity="1"/><rect x="-150" width="1800" fill="rgb(100%, 100%, 100%)" y="-74.999999" height="899.999994" fill-opacity="1"/><rect x="-150" width="1800" fill="rgb(100%, 100%, 100%)" y="-74.999999" height="899.999994" fill-opacity="1"/><rect x="-150" width="1800" fill="rgb(100%, 100%, 100%)" y="-74.999999" height="899.999994" fill-opacity="1"/><path fill="rgb(46.669006%, 46.669006%, 46.669006%)" d="M 0 0 L 0 750 L 1500.75 750 L 1500.75 0 L 0 0 M 1476.863281 726.109375 L 23.390625 726.109375 L 23.390625 23.390625 L 1476.863281 23.390625 L 1476.863281 726.109375 " fill-opacity="1" fill-rule="nonzero"/><g fill="rgb(46.669006%, 46.669006%, 46.669006%)" fill-opacity="1"><g transform="translate(124.508722, 539.789626)"><g><path d="M 25.78125 -429.492188 C 26.953125 -429.492188 27.539062 -414.257812 27.539062 -391.40625 L 27.539062 -42.773438 C 27.539062 -19.921875 26.953125 -4.6875 25.78125 -4.6875 L 25.78125 1.171875 L 38.671875 1.171875 L 38.671875 -4.6875 C 37.5 -4.6875 36.914062 -19.921875 36.914062 -42.773438 L 36.914062 -404.296875 L 271.875 7.617188 L 284.765625 7.617188 L 284.765625 -391.40625 C 284.765625 -414.257812 285.351562 -429.492188 285.9375 -429.492188 L 286.523438 -429.492188 L 286.523438 -435.351562 L 284.765625 -435.351562 L 284.765625 -435.9375 L 273.046875 -435.9375 L 273.046875 -430.078125 L 273.632812 -430.078125 C 274.804688 -430.078125 275.390625 -414.84375 275.390625 -391.992188 L 275.390625 -48.632812 L 55.664062 -435.9375 L 27.539062 -435.9375 L 27.539062 -435.351562 L 25.78125 -435.351562 Z M 25.78125 -429.492188 "/></g></g><g transform="translate(428.024332, 539.789626)"><g><path d="M 16.40625 -430.664062 C 16.992188 -430.664062 24.023438 -415.429688 33.984375 -392.578125 L 34.570312 -392.578125 L 130.078125 -172.851562 L 130.078125 -43.945312 C 130.078125 -21.09375 129.492188 -5.859375 128.320312 -5.859375 L 128.320312 0 L 163.476562 0 L 163.476562 -5.859375 C 162.304688 -5.859375 161.71875 -21.09375 161.71875 -43.945312 L 161.71875 -189.257812 L 256.054688 -392.578125 L 256.640625 -392.578125 C 266.601562 -415.429688 274.21875 -430.664062 275.390625 -430.664062 C 275.390625 -430.664062 275.976562 -431.835938 275.976562 -433.59375 C 276.5625 -434.765625 276.5625 -435.9375 276.5625 -436.523438 L 267.1875 -436.523438 L 267.1875 -435.9375 L 264.257812 -435.9375 L 264.257812 -430.078125 C 264.257812 -430.078125 254.882812 -410.15625 241.40625 -380.273438 L 241.40625 -380.859375 L 155.859375 -194.53125 L 55.664062 -430.664062 C 55.664062 -431.25 55.664062 -432.421875 55.078125 -433.59375 L 55.078125 -436.523438 L 15.234375 -436.523438 C 14.648438 -435.9375 15.234375 -434.765625 15.820312 -433.59375 C 15.820312 -431.835938 15.820312 -430.664062 16.40625 -430.664062 Z M 16.40625 -430.664062 "/></g></g><g transform="translate(719.235255, 539.789626)"><g><path d="M 360.9375 -201.5625 C 360.351562 -203.320312 360.351562 -204.492188 360.9375 -204.492188 L 328.710938 -204.492188 L 328.710938 -198.632812 C 329.882812 -198.632812 330.46875 -183.398438 330.46875 -160.546875 L 331.640625 -161.132812 L 331.640625 -28.710938 C 297.65625 -14.0625 254.882812 -5.273438 217.96875 -5.273438 C 130.664062 -5.273438 72.070312 -90.234375 72.070312 -217.96875 C 72.070312 -346.289062 130.664062 -431.25 217.96875 -431.25 C 266.601562 -431.25 317.578125 -417.773438 348.046875 -377.34375 L 349.804688 -373.828125 C 350.390625 -372.65625 350.976562 -371.484375 351.5625 -370.898438 L 356.835938 -370.898438 L 356.835938 -377.34375 C 339.84375 -414.84375 283.59375 -439.453125 216.210938 -439.453125 C 107.8125 -439.453125 35.15625 -350.976562 35.15625 -217.96875 C 35.15625 -85.546875 107.8125 2.929688 216.210938 2.929688 C 264.257812 2.929688 321.09375 -11.71875 359.179688 -33.398438 L 359.179688 -190.429688 C 359.179688 -195.703125 359.765625 -198.632812 360.351562 -198.632812 L 360.9375 -198.632812 C 360.351562 -198.632812 360.351562 -199.804688 360.9375 -201.5625 Z M 360.9375 -201.5625 "/></g></g><g transform="translate(1133.493048, 539.789626)"><g><path d="M 178.710938 -241.992188 L 178.710938 -253.710938 L 172.851562 -253.710938 C 168.75 -252.539062 145.898438 -251.953125 116.015625 -251.953125 L 57.421875 -251.953125 L 57.421875 -427.734375 L 135.9375 -427.734375 C 171.09375 -427.734375 199.804688 -426.5625 208.59375 -424.804688 L 215.039062 -424.804688 L 215.039062 -435.9375 L 23.4375 -435.9375 L 23.4375 -430.078125 L 24.023438 -430.078125 C 24.609375 -430.078125 25.195312 -414.84375 25.195312 -391.992188 L 25.195312 -43.359375 C 25.195312 -20.507812 24.609375 -5.273438 24.023438 -5.273438 L 23.4375 -5.273438 L 23.4375 0.585938 L 217.96875 0.585938 L 219.140625 -4.101562 C 219.140625 -6.445312 219.726562 -8.789062 220.3125 -11.132812 L 216.210938 -11.132812 L 213.28125 -10.546875 C 207.421875 -9.375 193.359375 -8.203125 175.195312 -7.617188 L 57.421875 -7.617188 L 57.421875 -244.335938 L 116.015625 -244.335938 C 145.898438 -244.335938 168.75 -243.75 172.851562 -242.578125 L 174.609375 -241.992188 Z M 178.710938 -241.992188 "/></g></g></g><path fill="rgb(46.669006%, 46.669006%, 46.669006%)" d="M 1379.3125 581.941406 L 108.691406 581.941406 L 108.691406 584.875 L 1391.671875 584.875 L 1391.671875 581.941406 L 1379.3125 581.941406 " fill-opacity="1" fill-rule="nonzero"/><g fill="rgb(46.669006%, 46.669006%, 46.669006%)" fill-opacity="1"><g transform="translate(205.824956, 660.996444)"><g><path d="M 53.0625 -67.96875 C 52.96875 -68.34375 52.96875 -68.8125 52.875 -69.1875 L 52.875 -69.84375 L 2.53125 -69.84375 L 2.4375 -69.1875 C 2.4375 -68.8125 2.34375 -68.34375 2.34375 -67.96875 L 3.09375 -67.96875 L 3.46875 -68.0625 C 4.96875 -68.34375 9 -68.53125 13.5 -68.53125 L 25.125 -68.53125 L 25.125 -7.03125 C 25.125 -3.375 25.03125 -0.9375 24.9375 -0.9375 L 24.84375 -0.9375 L 24.84375 0 L 30.46875 0 C 30.5625 0 30.5625 -0.1875 30.46875 -0.46875 C 30.5625 -0.75 30.5625 -0.9375 30.46875 -0.9375 C 30.375 -0.9375 30.1875 -3.375 30.1875 -7.03125 L 30.1875 -68.53125 L 41.90625 -68.53125 C 46.40625 -68.53125 50.34375 -68.34375 51.84375 -68.0625 L 52.3125 -67.96875 Z M 53.0625 -67.96875 "/></g></g><g transform="translate(261.137453, 660.996444)"><g><path d="M 38.15625 0 L 38.15625 -0.9375 L 38.0625 -0.9375 C 37.96875 -0.9375 37.875 -3.375 37.875 -7.03125 L 37.875 -31.5 C 37.875 -41.0625 34.875 -47.34375 27 -47.34375 C 18.1875 -47.34375 11.4375 -43.3125 9.1875 -36.9375 L 9.1875 -67.5 L 8.25 -67.5 L 4.21875 -66.1875 L 4.21875 -65.34375 C 4.5 -63.84375 4.5 -62.53125 4.5 -57.46875 L 4.5 -7.03125 C 4.5 -3.375 4.40625 -0.9375 4.21875 -0.9375 L 4.21875 0 L 9.46875 0 L 9.46875 -0.9375 L 9.375 -0.9375 C 9.28125 -0.9375 9.1875 -3.375 9.1875 -7.03125 L 9.1875 -35.25 C 10.59375 -40.6875 16.125 -44.15625 23.4375 -44.15625 C 30.46875 -44.15625 33.1875 -38.90625 33.1875 -31.03125 L 33.1875 -7.03125 C 33.1875 -3.375 33.09375 -0.9375 32.90625 -0.9375 L 32.90625 0 Z M 38.15625 0 "/></g></g><g transform="translate(302.949951, 660.996444)"><g><path d="M 36.9375 -13.96875 C 34.875 -7.03125 30.09375 -2.34375 25.125 -2.34375 C 15.84375 -2.34375 9.65625 -10.96875 9.65625 -23.8125 C 9.65625 -26.71875 9.9375 -29.4375 10.40625 -31.875 L 37.78125 -31.875 C 37.78125 -41.15625 31.96875 -47.25 23.15625 -47.25 C 12.09375 -47.25 4.6875 -37.125 4.6875 -21.9375 C 4.6875 -8.4375 11.25 0.5625 21.1875 0.5625 C 28.40625 0.5625 35.0625 -5.15625 37.59375 -13.6875 L 37.59375 -13.78125 Z M 22.875 -45.84375 C 29.15625 -45.84375 33.375 -41.8125 33.375 -35.71875 L 33.375 -35.625 C 33.28125 -34.5 32.4375 -33.75 31.3125 -33.5625 L 10.59375 -32.8125 C 12.46875 -40.875 16.96875 -45.84375 22.875 -45.84375 Z M 22.875 -45.84375 "/></g></g><g transform="translate(345.324949, 660.996444)"><g/></g><g transform="translate(368.012448, 660.996444)"><g><path d="M 4.125 -68.71875 C 4.3125 -68.71875 4.40625 -66.28125 4.40625 -62.625 L 4.40625 -6.84375 C 4.40625 -3.1875 4.3125 -0.75 4.125 -0.75 L 4.125 0.1875 L 6.1875 0.1875 L 6.1875 -0.75 C 6 -0.75 5.90625 -3.1875 5.90625 -6.84375 L 5.90625 -64.6875 L 43.5 1.21875 L 45.5625 1.21875 L 45.5625 -62.625 C 45.5625 -66.28125 45.65625 -68.71875 45.75 -68.71875 L 45.84375 -68.71875 L 45.84375 -69.65625 L 45.5625 -69.65625 L 45.5625 -69.75 L 43.6875 -69.75 L 43.6875 -68.8125 L 43.78125 -68.8125 C 43.96875 -68.8125 44.0625 -66.375 44.0625 -62.71875 L 44.0625 -7.78125 L 8.90625 -69.75 L 4.40625 -69.75 L 4.40625 -69.65625 L 4.125 -69.65625 Z M 4.125 -68.71875 "/></g></g><g transform="translate(416.574946, 660.996444)"><g><path d="M 36.9375 -13.96875 C 34.875 -7.03125 30.09375 -2.34375 25.125 -2.34375 C 15.84375 -2.34375 9.65625 -10.96875 9.65625 -23.8125 C 9.65625 -26.71875 9.9375 -29.4375 10.40625 -31.875 L 37.78125 -31.875 C 37.78125 -41.15625 31.96875 -47.25 23.15625 -47.25 C 12.09375 -47.25 4.6875 -37.125 4.6875 -21.9375 C 4.6875 -8.4375 11.25 0.5625 21.1875 0.5625 C 28.40625 0.5625 35.0625 -5.15625 37.59375 -13.6875 L 37.59375 -13.78125 Z M 22.875 -45.84375 C 29.15625 -45.84375 33.375 -41.8125 33.375 -35.71875 L 33.375 -35.625 C 33.28125 -34.5 32.4375 -33.75 31.3125 -33.5625 L 10.59375 -32.8125 C 12.46875 -40.875 16.96875 -45.84375 22.875 -45.84375 Z M 22.875 -45.84375 "/></g></g><g transform="translate(458.949944, 660.996444)"><g><path d="M 1.875 -46.40625 C 1.96875 -46.125 1.96875 -45.9375 1.96875 -45.9375 C 2.0625 -45.9375 2.4375 -45 4.21875 -39.9375 L 18.28125 0.9375 L 19.125 0.9375 L 28.78125 -29.71875 L 39.28125 0.9375 L 40.125 0.9375 L 56.25 -45.46875 C 56.4375 -45.84375 56.53125 -45.9375 56.625 -45.9375 L 56.71875 -45.9375 L 56.71875 -46.40625 C 56.8125 -46.6875 56.8125 -46.875 56.8125 -46.875 L 54.84375 -46.875 L 54.84375 -45.9375 C 54.9375 -45.9375 54.46875 -44.625 52.125 -37.59375 L 41.4375 -5.34375 L 30.75 -39 C 30.65625 -39.375 30.5625 -39.65625 30.46875 -39.9375 L 28.59375 -45.84375 L 28.59375 -46.875 L 22.875 -46.875 C 22.875 -46.875 22.875 -46.6875 22.96875 -46.40625 L 22.96875 -45.9375 L 23.0625 -45.9375 C 23.0625 -45.9375 23.4375 -45 25.21875 -39.9375 L 28.21875 -31.21875 L 20.25 -5.34375 L 7.5 -45.9375 L 7.59375 -45.9375 L 7.59375 -46.875 L 1.875 -46.875 Z M 1.875 -46.40625 "/></g></g><g transform="translate(519.043691, 660.996444)"><g/></g><g transform="translate(541.73119, 660.996444)"><g><path d="M 2.625 -68.90625 C 2.71875 -68.90625 3.84375 -66.46875 5.4375 -62.8125 L 5.53125 -62.8125 L 20.8125 -27.65625 L 20.8125 -7.03125 C 20.8125 -3.375 20.71875 -0.9375 20.53125 -0.9375 L 20.53125 0 L 26.15625 0 L 26.15625 -0.9375 C 25.96875 -0.9375 25.875 -3.375 25.875 -7.03125 L 25.875 -30.28125 L 40.96875 -62.8125 L 41.0625 -62.8125 C 42.65625 -66.46875 43.875 -68.90625 44.0625 -68.90625 C 44.0625 -68.90625 44.15625 -69.09375 44.15625 -69.375 C 44.25 -69.5625 44.25 -69.75 44.25 -69.84375 L 42.75 -69.84375 L 42.75 -69.75 L 42.28125 -69.75 L 42.28125 -68.8125 C 42.28125 -68.8125 40.78125 -65.625 38.625 -60.84375 L 38.625 -60.9375 L 24.9375 -31.125 L 8.90625 -68.90625 C 8.90625 -69 8.90625 -69.1875 8.8125 -69.375 L 8.8125 -69.84375 L 2.4375 -69.84375 C 2.34375 -69.75 2.4375 -69.5625 2.53125 -69.375 C 2.53125 -69.09375 2.53125 -68.90625 2.625 -68.90625 Z M 2.625 -68.90625 "/></g></g><g transform="translate(588.324937, 660.996444)"><g><path d="M 26.25 -47.34375 C 13.3125 -47.34375 4.6875 -37.78125 4.6875 -23.4375 C 4.6875 -9.09375 13.3125 0.46875 26.25 0.46875 C 39.09375 0.46875 47.71875 -9.09375 47.71875 -23.4375 C 47.71875 -37.78125 39.09375 -47.34375 26.25 -47.34375 Z M 26.25 -46.3125 C 36 -46.3125 42.5625 -37.125 42.5625 -23.4375 C 42.5625 -9.75 36 -0.5625 26.25 -0.5625 C 16.40625 -0.5625 9.9375 -9.75 9.9375 -23.4375 C 9.9375 -37.125 16.40625 -46.3125 26.25 -46.3125 Z M 26.25 -46.3125 "/></g></g><g transform="translate(640.731185, 660.996444)"><g><path d="M 9.46875 -0.9375 L 9.375 -0.9375 C 9.28125 -0.9375 9.1875 -3.375 9.1875 -7.03125 L 9.1875 -36.09375 C 10.40625 -40.875 13.5 -43.875 17.53125 -43.875 C 20.34375 -43.875 23.4375 -41.8125 26.15625 -41.8125 C 27.5625 -41.8125 28.40625 -42.65625 28.40625 -44.0625 C 28.40625 -46.03125 26.4375 -47.34375 21.28125 -47.34375 C 15.1875 -47.34375 10.6875 -43.3125 9.1875 -36.84375 L 9.1875 -38.625 L 8.53125 -46.875 L 7.59375 -46.875 L 4.21875 -45.5625 L 4.21875 -44.71875 C 4.5 -43.21875 4.5 -42 4.5 -36.84375 L 4.5 -7.03125 C 4.5 -3.375 4.40625 -0.9375 4.21875 -0.9375 L 4.21875 0 L 9.46875 0 Z M 9.46875 -0.9375 "/></g></g><g transform="translate(670.074933, 660.996444)"><g><path d="M 10.40625 -0.28125 C 10.3125 -0.5625 10.3125 -0.75 10.40625 -0.75 L 10.3125 -0.75 C 10.21875 -0.75 10.125 -1.21875 10.125 -2.0625 L 10.125 -25.5 L 10.59375 -24.84375 L 10.6875 -24.9375 L 31.78125 -0.46875 C 31.78125 -0.375 31.875 -0.28125 31.96875 -0.1875 C 32.0625 0.09375 32.15625 0.28125 32.15625 0.28125 L 38.34375 0.28125 C 38.34375 0.28125 38.25 0.09375 38.0625 -0.1875 C 37.96875 -0.46875 37.875 -0.65625 37.875 -0.65625 L 37.78125 -0.65625 C 37.59375 -0.65625 35.4375 -3.09375 32.34375 -6.75 L 13.96875 -28.3125 L 27.1875 -40.78125 C 30.5625 -43.875 32.8125 -45.84375 33 -45.84375 C 33 -45.84375 33.1875 -46.03125 33.375 -46.3125 C 33.5625 -46.59375 33.65625 -46.78125 33.65625 -46.78125 L 31.3125 -46.78125 C 31.3125 -46.78125 31.21875 -46.59375 31.03125 -46.3125 C 30.84375 -46.125 30.75 -45.9375 30.75 -45.84375 L 10.125 -25.59375 L 10.125 -67.3125 L 9.1875 -67.3125 L 5.0625 -66 C 5.15625 -66 5.15625 -66 5.0625 -65.90625 C 5.15625 -65.625 5.15625 -65.4375 5.0625 -65.4375 L 5.15625 -65.15625 C 5.4375 -63.65625 5.4375 -62.34375 5.4375 -57.28125 L 5.4375 -6.84375 C 5.4375 -3.1875 5.34375 -0.75 5.15625 -0.75 L 5.0625 -0.75 C 5.15625 -0.75 5.15625 -0.5625 5.0625 -0.28125 C 5.15625 0 5.15625 0.1875 5.0625 0.1875 L 10.40625 0.1875 C 10.3125 0.1875 10.3125 0 10.40625 -0.28125 Z M 10.40625 -0.28125 "/></g></g><g transform="translate(704.668682, 660.996444)"><g/></g><g transform="translate(727.356181, 660.996444)"><g><path d="M 57.75 -32.25 C 57.65625 -32.53125 57.65625 -32.71875 57.75 -32.71875 L 52.59375 -32.71875 L 52.59375 -31.78125 C 52.78125 -31.78125 52.875 -29.34375 52.875 -25.6875 L 53.0625 -25.78125 L 53.0625 -4.59375 C 47.625 -2.25 40.78125 -0.84375 34.875 -0.84375 C 20.90625 -0.84375 11.53125 -14.4375 11.53125 -34.875 C 11.53125 -55.40625 20.90625 -69 34.875 -69 C 42.65625 -69 50.8125 -66.84375 55.6875 -60.375 L 55.96875 -59.8125 C 56.0625 -59.625 56.15625 -59.4375 56.25 -59.34375 L 57.09375 -59.34375 L 57.09375 -60.375 C 54.375 -66.375 45.375 -70.3125 34.59375 -70.3125 C 17.25 -70.3125 5.625 -56.15625 5.625 -34.875 C 5.625 -13.6875 17.25 0.46875 34.59375 0.46875 C 42.28125 0.46875 51.375 -1.875 57.46875 -5.34375 L 57.46875 -30.46875 C 57.46875 -31.3125 57.5625 -31.78125 57.65625 -31.78125 L 57.75 -31.78125 C 57.65625 -31.78125 57.65625 -31.96875 57.75 -32.25 Z M 57.75 -32.25 "/></g></g><g transform="translate(793.637427, 660.996444)"><g><path d="M 9.46875 -0.9375 L 9.375 -0.9375 C 9.28125 -0.9375 9.1875 -3.375 9.1875 -7.03125 L 9.1875 -36.09375 C 10.40625 -40.875 13.5 -43.875 17.53125 -43.875 C 20.34375 -43.875 23.4375 -41.8125 26.15625 -41.8125 C 27.5625 -41.8125 28.40625 -42.65625 28.40625 -44.0625 C 28.40625 -46.03125 26.4375 -47.34375 21.28125 -47.34375 C 15.1875 -47.34375 10.6875 -43.3125 9.1875 -36.84375 L 9.1875 -38.625 L 8.53125 -46.875 L 7.59375 -46.875 L 4.21875 -45.5625 L 4.21875 -44.71875 C 4.5 -43.21875 4.5 -42 4.5 -36.84375 L 4.5 -7.03125 C 4.5 -3.375 4.40625 -0.9375 4.21875 -0.9375 L 4.21875 0 L 9.46875 0 Z M 9.46875 -0.9375 "/></g></g><g transform="translate(822.981176, 660.996444)"><g><path d="M 40.40625 -3.46875 C 39.09375 -2.15625 37.6875 -1.3125 35.53125 -1.3125 C 32.71875 -1.3125 31.875 -3.46875 31.875 -6.84375 L 31.875 -33.65625 C 31.875 -41.90625 27.84375 -47.34375 21.84375 -47.34375 C 9.375 -47.34375 3.375 -41.15625 6.75 -31.875 L 11.4375 -31.875 C 8.34375 -40.40625 12.09375 -46.03125 20.8125 -46.03125 C 24.5625 -46.03125 27 -41.53125 27 -34.78125 L 27 -24.65625 L 17.4375 -21.9375 C 9 -19.5 3.375 -14.53125 3.375 -9.5625 C 3.375 -3.5625 7.21875 0.46875 12.9375 0.46875 C 17.53125 0.46875 22.78125 -2.0625 27 -6.1875 C 27 -1.96875 28.21875 0.9375 32.34375 0.9375 C 36.09375 0.9375 38.625 -0.5625 40.96875 -2.8125 Z M 7.96875 -10.875 C 7.96875 -14.71875 11.8125 -18.5625 17.53125 -20.4375 L 27 -23.53125 L 27 -7.125 C 23.71875 -4.40625 19.3125 -2.71875 15.1875 -2.71875 C 10.875 -2.71875 7.96875 -6 7.96875 -10.875 Z M 7.96875 -10.875 "/></g></g><g transform="translate(865.449924, 660.996444)"><g><path d="M 29.4375 -40.21875 C 29.625 -40.03125 29.8125 -39.75 29.90625 -39.46875 L 30.5625 -39.46875 L 30.5625 -40.03125 C 28.59375 -44.4375 23.90625 -47.34375 19.03125 -47.34375 C 11.25 -47.34375 6.09375 -42.5625 6.09375 -35.4375 C 6.09375 -30.75 11.0625 -25.3125 18.46875 -21.75 C 24.28125 -19.03125 28.21875 -14.71875 28.21875 -10.96875 C 28.21875 -4.78125 24.5625 -0.5625 19.03125 -0.5625 C 17.34375 -0.5625 15.75 -0.75 14.25 -1.03125 C 10.96875 -1.875 7.59375 -3.9375 5.8125 -6.46875 C 5.53125 -6.75 5.34375 -7.125 5.0625 -7.40625 L 4.40625 -7.40625 L 4.40625 -6.75 C 6.46875 -2.4375 12.1875 0.46875 18.75 0.46875 C 26.8125 0.46875 32.15625 -4.78125 32.15625 -12.75 C 32.15625 -17.15625 28.03125 -22.125 21.75 -25.125 C 14.53125 -28.5 9.65625 -33.28125 9.65625 -37.03125 C 9.65625 -42.5625 13.40625 -46.3125 19.03125 -46.3125 C 20.625 -46.3125 22.21875 -46.03125 23.625 -45.46875 L 23.71875 -45.46875 C 25.96875 -44.53125 28.21875 -42.46875 29.4375 -40.21875 Z M 29.4375 -40.21875 "/></g></g><g transform="translate(902.293672, 660.996444)"><g><path d="M 29.4375 -40.21875 C 29.625 -40.03125 29.8125 -39.75 29.90625 -39.46875 L 30.5625 -39.46875 L 30.5625 -40.03125 C 28.59375 -44.4375 23.90625 -47.34375 19.03125 -47.34375 C 11.25 -47.34375 6.09375 -42.5625 6.09375 -35.4375 C 6.09375 -30.75 11.0625 -25.3125 18.46875 -21.75 C 24.28125 -19.03125 28.21875 -14.71875 28.21875 -10.96875 C 28.21875 -4.78125 24.5625 -0.5625 19.03125 -0.5625 C 17.34375 -0.5625 15.75 -0.75 14.25 -1.03125 C 10.96875 -1.875 7.59375 -3.9375 5.8125 -6.46875 C 5.53125 -6.75 5.34375 -7.125 5.0625 -7.40625 L 4.40625 -7.40625 L 4.40625 -6.75 C 6.46875 -2.4375 12.1875 0.46875 18.75 0.46875 C 26.8125 0.46875 32.15625 -4.78125 32.15625 -12.75 C 32.15625 -17.15625 28.03125 -22.125 21.75 -25.125 C 14.53125 -28.5 9.65625 -33.28125 9.65625 -37.03125 C 9.65625 -42.5625 13.40625 -46.3125 19.03125 -46.3125 C 20.625 -46.3125 22.21875 -46.03125 23.625 -45.46875 L 23.71875 -45.46875 C 25.96875 -44.53125 28.21875 -42.46875 29.4375 -40.21875 Z M 29.4375 -40.21875 "/></g></g><g transform="translate(939.13742, 660.996444)"><g/></g><g transform="translate(961.824919, 660.996444)"><g><path d="M 28.59375 -38.71875 L 28.59375 -40.59375 L 27.65625 -40.59375 C 27 -40.40625 23.34375 -40.3125 18.5625 -40.3125 L 9.1875 -40.3125 L 9.1875 -68.4375 L 21.75 -68.4375 C 27.375 -68.4375 31.96875 -68.25 33.375 -67.96875 L 34.40625 -67.96875 L 34.40625 -69.75 L 3.75 -69.75 L 3.75 -68.8125 L 3.84375 -68.8125 C 3.9375 -68.8125 4.03125 -66.375 4.03125 -62.71875 L 4.03125 -6.9375 C 4.03125 -3.28125 3.9375 -0.84375 3.84375 -0.84375 L 3.75 -0.84375 L 3.75 0.09375 L 34.875 0.09375 L 35.0625 -0.65625 C 35.0625 -1.03125 35.15625 -1.40625 35.25 -1.78125 L 34.59375 -1.78125 L 34.125 -1.6875 C 33.1875 -1.5 30.9375 -1.3125 28.03125 -1.21875 L 9.1875 -1.21875 L 9.1875 -39.09375 L 18.5625 -39.09375 C 23.34375 -39.09375 27 -39 27.65625 -38.8125 L 27.9375 -38.71875 Z M 28.59375 -38.71875 "/></g></g><g transform="translate(1000.543667, 660.996444)"><g><path d="M 9.84375 -7.03125 L 9.9375 -7.03125 L 19.40625 -22.875 L 32.90625 -2.71875 C 33.65625 -1.59375 34.125 -0.9375 34.125 -0.9375 C 34.125 -0.9375 34.21875 -0.75 34.3125 -0.46875 C 34.40625 -0.1875 34.5 0 34.5 0 L 40.5 0 C 40.5 0 40.40625 -0.1875 40.3125 -0.46875 C 40.21875 -0.75 40.125 -0.9375 40.125 -0.9375 L 40.03125 -0.9375 C 39.9375 -0.9375 38.25 -3.375 35.8125 -7.03125 L 22.3125 -27.1875 L 30.65625 -39.84375 C 33.09375 -43.5 34.78125 -45.9375 34.96875 -45.9375 C 34.96875 -45.9375 35.0625 -46.125 35.15625 -46.40625 C 35.25 -46.6875 35.34375 -46.875 35.25 -46.875 L 33.46875 -46.875 C 33.46875 -46.875 33.46875 -46.6875 33.375 -46.40625 C 33.28125 -46.21875 33.28125 -46.03125 33.28125 -45.9375 L 21.84375 -27.84375 L 9.65625 -45.9375 C 9.65625 -46.03125 9.5625 -46.21875 9.46875 -46.40625 C 9.375 -46.6875 9.375 -46.875 9.375 -46.875 L 3.28125 -46.875 C 3.28125 -46.875 3.28125 -46.6875 3.46875 -46.40625 C 3.5625 -46.125 3.65625 -45.9375 3.65625 -45.9375 C 3.84375 -45.9375 5.53125 -43.5 7.96875 -39.84375 L 18.75 -23.8125 L 8.53125 -7.03125 L 8.4375 -7.03125 C 6.28125 -3.375 4.6875 -0.9375 4.5 -0.9375 L 4.40625 -0.9375 C 4.40625 -0.9375 4.40625 -0.75 4.3125 -0.46875 C 4.21875 -0.1875 4.21875 0 4.21875 0 L 6.09375 0 C 6.09375 0 6.09375 -0.1875 6.1875 -0.46875 L 6.1875 -0.9375 C 6.1875 -0.9375 7.6875 -3.375 9.84375 -7.03125 Z M 9.84375 -7.03125 "/></g></g><g transform="translate(1043.012415, 660.996444)"><g><path d="M 9.65625 -23.8125 C 9.65625 -37.125 15.9375 -46.03125 25.21875 -46.03125 C 29.25 -46.03125 32.25 -42.75 32.71875 -37.875 C 32.8125 -36.46875 33.75 -35.53125 35.0625 -35.53125 C 36.28125 -35.53125 37.125 -36.375 37.125 -37.59375 C 36.65625 -43.40625 32.0625 -47.34375 25.78125 -47.34375 C 13.125 -47.34375 4.6875 -37.21875 4.6875 -22.03125 C 4.6875 -8.53125 11.15625 0.46875 20.8125 0.46875 C 27.9375 0.46875 34.40625 -5.25 37.03125 -13.78125 L 36.375 -13.96875 C 34.21875 -7.03125 29.625 -2.34375 24.75 -2.34375 C 15.65625 -2.34375 9.65625 -10.96875 9.65625 -23.8125 Z M 9.65625 -23.8125 "/></g></g><g transform="translate(1084.731163, 660.996444)"><g><path d="M 38.15625 0 L 38.15625 -0.9375 L 38.0625 -0.9375 C 37.96875 -0.9375 37.875 -3.375 37.875 -7.03125 L 37.875 -31.5 C 37.875 -41.0625 34.875 -47.34375 27 -47.34375 C 18.1875 -47.34375 11.4375 -43.3125 9.1875 -36.9375 L 9.1875 -67.5 L 8.25 -67.5 L 4.21875 -66.1875 L 4.21875 -65.34375 C 4.5 -63.84375 4.5 -62.53125 4.5 -57.46875 L 4.5 -7.03125 C 4.5 -3.375 4.40625 -0.9375 4.21875 -0.9375 L 4.21875 0 L 9.46875 0 L 9.46875 -0.9375 L 9.375 -0.9375 C 9.28125 -0.9375 9.1875 -3.375 9.1875 -7.03125 L 9.1875 -35.25 C 10.59375 -40.6875 16.125 -44.15625 23.4375 -44.15625 C 30.46875 -44.15625 33.1875 -38.90625 33.1875 -31.03125 L 33.1875 -7.03125 C 33.1875 -3.375 33.09375 -0.9375 32.90625 -0.9375 L 32.90625 0 Z M 38.15625 0 "/></g></g><g transform="translate(1126.543661, 660.996444)"><g><path d="M 40.40625 -3.46875 C 39.09375 -2.15625 37.6875 -1.3125 35.53125 -1.3125 C 32.71875 -1.3125 31.875 -3.46875 31.875 -6.84375 L 31.875 -33.65625 C 31.875 -41.90625 27.84375 -47.34375 21.84375 -47.34375 C 9.375 -47.34375 3.375 -41.15625 6.75 -31.875 L 11.4375 -31.875 C 8.34375 -40.40625 12.09375 -46.03125 20.8125 -46.03125 C 24.5625 -46.03125 27 -41.53125 27 -34.78125 L 27 -24.65625 L 17.4375 -21.9375 C 9 -19.5 3.375 -14.53125 3.375 -9.5625 C 3.375 -3.5625 7.21875 0.46875 12.9375 0.46875 C 17.53125 0.46875 22.78125 -2.0625 27 -6.1875 C 27 -1.96875 28.21875 0.9375 32.34375 0.9375 C 36.09375 0.9375 38.625 -0.5625 40.96875 -2.8125 Z M 7.96875 -10.875 C 7.96875 -14.71875 11.8125 -18.5625 17.53125 -20.4375 L 27 -23.53125 L 27 -7.125 C 23.71875 -4.40625 19.3125 -2.71875 15.1875 -2.71875 C 10.875 -2.71875 7.96875 -6 7.96875 -10.875 Z M 7.96875 -10.875 "/></g></g><g transform="translate(1169.012409, 660.996444)"><g><path d="M 38.15625 -0.9375 L 38.0625 -0.9375 C 37.96875 -0.9375 37.875 -3.375 37.875 -7.03125 L 37.875 -31.5 C 37.875 -41.0625 34.875 -47.34375 27 -47.34375 C 18.1875 -47.34375 11.4375 -43.3125 9.1875 -36.9375 L 9.1875 -46.875 L 8.25 -46.875 L 4.21875 -45.5625 L 4.21875 -44.71875 C 4.5 -43.21875 4.5 -42 4.5 -36.84375 L 4.5 -7.03125 C 4.5 -3.375 4.40625 -0.9375 4.21875 -0.9375 L 4.21875 0 L 9.46875 0 L 9.46875 -0.9375 L 9.375 -0.9375 C 9.28125 -0.9375 9.1875 -3.375 9.1875 -7.03125 L 9.1875 -35.25 C 10.59375 -40.6875 16.125 -44.15625 23.4375 -44.15625 C 30.46875 -44.15625 33.1875 -38.90625 33.1875 -31.03125 L 33.1875 -7.03125 C 33.1875 -3.375 33.09375 -0.9375 32.90625 -0.9375 L 32.90625 0 L 38.15625 0 Z M 38.15625 -0.9375 "/></g></g><g transform="translate(1210.824907, 660.996444)"><g><path d="M 4.875 -10.5 C 4.875 -5.8125 8.4375 -2.625 14.0625 -1.96875 C 7.125 0.75 2.53125 5.53125 2.53125 10.3125 C 2.53125 17.4375 7.6875 22.21875 15.375 22.21875 C 29.625 22.21875 39.09375 15.09375 39.09375 4.5 C 39.09375 -2.15625 32.8125 -6.65625 23.25 -6.65625 L 16.96875 -6.375 C 13.03125 -6.375 7.96875 -7.40625 7.96875 -12.375 C 7.96875 -16.03125 11.71875 -18.375 17.25 -18.375 L 21.65625 -18.375 C 30.75 -18.375 36.84375 -24.1875 36.84375 -32.90625 C 36.84375 -37.78125 34.875 -41.8125 31.59375 -44.34375 L 40.96875 -44.34375 L 40.96875 -46.875 L 28.5 -46.03125 C 26.53125 -46.875 24.1875 -47.34375 21.65625 -47.34375 C 12.5625 -47.34375 6.46875 -41.53125 6.46875 -32.8125 C 6.46875 -25.875 10.3125 -20.8125 16.40625 -19.03125 C 9.46875 -18.75 4.875 -15.46875 4.875 -10.5 Z M 5.625 9.75 C 5.625 4.96875 9.5625 0.375 15.5625 -1.875 L 15.65625 -1.96875 L 17.15625 -1.96875 L 22.03125 -2.15625 C 30.28125 -2.15625 35.71875 1.5 35.71875 6.84375 C 35.71875 15.375 27.84375 21 15.9375 21 C 9.75 21 5.625 16.5 5.625 9.75 Z M 21.65625 -46.40625 C 28.125 -46.40625 32.4375 -40.96875 32.4375 -32.90625 C 32.4375 -24.84375 28.125 -19.40625 21.65625 -19.40625 C 15.1875 -19.40625 10.875 -24.84375 10.875 -32.90625 C 10.875 -40.96875 15.1875 -46.40625 21.65625 -46.40625 Z M 21.65625 -46.40625 "/></g></g><g transform="translate(1251.793655, 660.996444)"><g><path d="M 36.9375 -13.96875 C 34.875 -7.03125 30.09375 -2.34375 25.125 -2.34375 C 15.84375 -2.34375 9.65625 -10.96875 9.65625 -23.8125 C 9.65625 -26.71875 9.9375 -29.4375 10.40625 -31.875 L 37.78125 -31.875 C 37.78125 -41.15625 31.96875 -47.25 23.15625 -47.25 C 12.09375 -47.25 4.6875 -37.125 4.6875 -21.9375 C 4.6875 -8.4375 11.25 0.5625 21.1875 0.5625 C 28.40625 0.5625 35.0625 -5.15625 37.59375 -13.6875 L 37.59375 -13.78125 Z M 22.875 -45.84375 C 29.15625 -45.84375 33.375 -41.8125 33.375 -35.71875 L 33.375 -35.625 C 33.28125 -34.5 32.4375 -33.75 31.3125 -33.5625 L 10.59375 -32.8125 C 12.46875 -40.875 16.96875 -45.84375 22.875 -45.84375 Z M 22.875 -45.84375 "/></g></g></g><path fill="rgb(46.669006%, 46.669006%, 46.669006%)" d="M 1299.625 684.847656 L 188.714844 684.847656 L 188.714844 687.78125 L 1311.980469 687.78125 L 1311.980469 684.847656 L 1299.625 684.847656 " fill-opacity="1" fill-rule="nonzero"/><g fill="rgb(46.669006%, 46.669006%, 46.669006%)" fill-opacity="1"><g transform="translate(1380.416786, 106.875014)"><g><path d="M 44.625 -0.28125 C 63.84375 -0.28125 79.21875 -15.75 79.21875 -34.96875 C 79.21875 -54.1875 63.9375 -69.5625 44.625 -69.5625 C 25.3125 -69.5625 9.9375 -54.1875 9.9375 -34.96875 C 9.9375 -15.65625 25.21875 -0.28125 44.625 -0.28125 Z M 44.625 -2.4375 C 26.625 -2.4375 12.09375 -16.96875 12.09375 -34.96875 C 12.09375 -52.875 26.625 -67.40625 44.625 -67.40625 C 62.53125 -67.40625 77.0625 -52.875 77.0625 -34.96875 C 77.0625 -16.96875 62.53125 -2.4375 44.625 -2.4375 Z M 30.9375 -34.6875 C 30.9375 -23.53125 37.3125 -15.9375 46.875 -15.9375 C 52.875 -15.9375 57.84375 -18.09375 59.25 -21.1875 L 59.25 -21.84375 L 58.78125 -21.84375 C 58.78125 -21.65625 58.6875 -21.5625 58.6875 -21.46875 L 58.6875 -21.375 C 58.59375 -21.28125 58.59375 -21.28125 58.5 -21.1875 C 56.8125 -19.03125 53.625 -17.34375 50.4375 -16.875 L 50.25 -16.96875 C 49.125 -16.78125 48 -16.6875 46.78125 -16.6875 C 39 -16.6875 33.84375 -23.90625 33.84375 -34.6875 C 33.84375 -45.65625 39 -52.875 46.78125 -52.875 C 51.09375 -52.875 55.59375 -51.75 58.3125 -48.1875 C 58.3125 -48.1875 58.5 -48.09375 58.59375 -48 C 58.6875 -47.90625 58.78125 -47.71875 58.78125 -47.71875 L 59.25 -47.71875 L 59.25 -48.28125 C 57.84375 -51.46875 52.875 -53.53125 46.875 -53.53125 C 37.3125 -53.53125 30.9375 -46.03125 30.9375 -34.6875 Z M 30.9375 -34.6875 "/></g></g></g></svg>